<svg
        xmlns="http://www.w3.org/2000/svg"
        viewBox="0 0 64 64"
        width="64"
        height="64"
        fill="none"
>
    <!-- Coffee cup base -->
    <g stroke="#333" stroke-width="2" fill="#fff">
        <path
                d="M16 44h32a4 4 0 0 0 4-4V28a12 12 0 0 0-12-12H24a12 12 0 0 0-12 12v12a4 4 0 0 0 4 4z"
                fill="#F5F5F5"
        />
        <rect x="20" y="28" width="24" height="12" rx="2" ry="2" fill="#FFF" />
    </g>

    <!-- Steam lines -->
    <g stroke="#555" stroke-width="2" stroke-linecap="round">
        <path d="M28 16c0-4 4-6 4-10" />
        <path d="M32 16c0-4 4-6 4-10" />
        <path d="M36 16c0-4 4-6 4-10" />
    </g>

    <!-- Cup detail line -->
    <path
            d="M16 44c0 4 4 4 4 4h24s4 0 4-4"
            fill="none"
            stroke="#999"
            stroke-width="2"
            stroke-linecap="round"
    />
</svg>
